<?xml version="1.0" standalone="no"?>
<!DOCTYPE svg PUBLIC "-//W3C//DTD SVG 20010904//EN"
 "http://www.w3.org/TR/2001/REC-SVG-20010904/DTD/svg10.dtd">
<svg version="1.0" xmlns="http://www.w3.org/2000/svg"
 width="256.000000pt" height="246.000000pt" viewBox="0 0 256.000000 246.000000"
 preserveAspectRatio="xMidYMid meet">
<metadata>
Created by potrace 1.10, written by Peter Selinger 2001-2011
</metadata>
<g transform="translate(0.000000,246.000000) scale(0.100000,-0.100000)"
fill="#000000" stroke="none">
<path d="M1590 1979 c0 -23 69 -119 125 -174 28 -27 80 -65 115 -84 80 -42 76
-37 -22 28 -78 53 -132 108 -187 195 -17 28 -31 43 -31 35z"/>
<path d="M1225 1939 c-16 -6 -86 -23 -155 -38 -77 -18 -119 -31 -108 -36 19
-7 244 47 286 69 31 17 21 19 -23 5z"/>
<path d="M928 1583 c7 -3 16 -2 19 1 4 3 -2 6 -13 5 -11 0 -14 -3 -6 -6z"/>
<path d="M860 1554 c-14 -2 -44 -7 -68 -10 -23 -3 -41 -8 -38 -12 2 -4 -21 -8
-51 -10 -63 -3 -74 -7 -67 -26 6 -14 88 -6 187 19 83 21 120 19 179 -11 61
-31 130 -75 140 -89 5 -6 8 -3 8 7 0 18 -100 92 -135 100 -18 5 -18 6 5 16 23
10 21 11 -20 11 -25 1 -61 3 -80 5 -19 2 -46 2 -60 0z"/>
<path d="M1080 1509 c19 -12 44 -29 54 -38 16 -13 18 -13 14 -1 -6 19 -66 60
-87 60 -9 0 0 -10 19 -21z"/>
<path d="M840 1480 c0 -5 5 -10 10 -10 6 0 10 5 10 10 0 6 -4 10 -10 10 -5 0
-10 -4 -10 -10z"/>
<path d="M920 1480 c8 -5 22 -9 30 -9 10 0 8 3 -5 9 -27 12 -43 12 -25 0z"/>
<path d="M1187 1433 c-5 -59 -3 -72 10 -59 13 13 20 116 7 116 -7 0 -14 -23
-17 -57z"/>
<path d="M758 1473 c6 -2 18 -2 25 0 6 3 1 5 -13 5 -14 0 -19 -2 -12 -5z"/>
<path d="M878 1473 c7 -3 16 -2 19 1 4 3 -2 6 -13 5 -11 0 -14 -3 -6 -6z"/>
<path d="M1242 1427 c-2 -28 -7 -53 -13 -55 -12 -5 -12 -62 1 -62 6 0 10 9 10
21 0 11 4 28 9 37 14 28 20 112 7 112 -6 0 -12 -22 -14 -53z"/>
<path d="M656 1457 c3 -10 9 -15 12 -12 3 3 0 11 -7 18 -10 9 -11 8 -5 -6z"/>
<path d="M1287 1423 c-3 -27 -9 -63 -12 -80 -4 -18 -3 -33 2 -33 4 0 14 29 21
64 6 35 14 71 18 80 4 10 1 16 -9 16 -11 0 -17 -14 -20 -47z"/>
<path d="M1340 1441 c0 -17 2 -31 4 -31 8 0 13 51 5 56 -5 3 -9 -9 -9 -25z"/>
<path d="M1371 1415 l1 -50 9 39 c6 26 6 43 -1 50 -7 7 -10 -6 -9 -39z"/>
<path d="M1400 1415 c0 -14 4 -25 8 -25 4 0 9 11 10 25 1 14 -3 25 -8 25 -6 0
-10 -11 -10 -25z"/>
<path d="M1626 1433 c-4 -4 -13 -8 -19 -9 -7 0 -27 -4 -44 -9 -28 -6 -33 -12
-33 -36 0 -30 4 -30 55 -9 31 13 135 28 129 18 -3 -4 6 -8 19 -8 13 0 27 -3
31 -7 4 -5 11 -8 14 -8 16 -1 100 -57 126 -84 16 -17 42 -33 57 -36 34 -8 38
-25 7 -26 -19 -1 -20 -2 -4 -6 20 -5 66 15 66 29 0 4 -6 8 -13 8 -7 0 -42 21
-78 46 -39 29 -55 44 -40 41 49 -12 -3 20 -102 62 -91 38 -154 51 -171 34z
m49 -13 c17 -7 15 -9 -12 -9 -18 -1 -33 -5 -33 -10 0 -5 -11 -8 -25 -6 -14 1
-28 -2 -31 -6 -7 -12 -34 -11 -34 1 0 5 17 12 38 16 20 4 44 10 52 15 18 10
19 10 45 -1z"/>
<path d="M1320 1383 c0 -17 5 -35 10 -38 13 -8 13 35 0 55 -7 11 -10 7 -10
-17z"/>
<path d="M716 1388 c6 -9 27 -19 74 -33 40 -12 13 8 -35 26 -25 9 -42 13 -39
7z"/>
<path d="M885 1341 c26 -11 195 -20 195 -10 0 11 -58 19 -139 18 -49 0 -69 -3
-56 -8z"/>
<path d="M1745 1330 c-3 -5 -2 -10 4 -10 5 0 13 5 16 10 3 6 2 10 -4 10 -5 0
-13 -4 -16 -10z"/>
<path d="M1550 1236 c8 -7 35 -21 60 -31 25 -9 51 -20 59 -23 9 -3 12 0 9 9
-3 8 -9 14 -14 15 -5 0 -30 10 -56 22 -54 26 -80 29 -58 8z"/>
<path d="M1372 1215 c-15 -33 -15 -32 8 -38 17 -4 18 -1 13 27 -8 40 -8 40
-21 11z"/>
<path d="M1911 1214 c0 -11 3 -14 6 -6 3 7 2 16 -1 19 -3 4 -6 -2 -5 -13z"/>
<path d="M1836 1182 c-3 -5 -27 -7 -55 -5 -28 3 -52 0 -56 -6 -4 -7 10 -11 42
-11 27 0 54 -5 60 -11 13 -13 36 -3 28 12 -4 5 3 9 14 9 11 0 23 5 26 10 4 6
-6 10 -24 10 -16 0 -32 -4 -35 -8z"/>
<path d="M1077 1108 c-25 -24 -43 -54 -61 -106 -29 -82 -31 -99 -15 -188 10
-58 13 -64 42 -73 18 -6 88 -15 157 -21 69 -6 143 -15 164 -20 22 -5 44 -7 48
-4 33 20 93 278 76 326 -12 35 -39 43 -77 23 -29 -15 -31 -14 -46 9 -12 18
-28 25 -66 29 -28 4 -57 11 -63 16 -9 7 -16 7 -25 -2 -10 -9 -17 -6 -33 16
-26 36 -56 34 -101 -5z m91 -13 c12 -11 33 -21 45 -22 89 -8 122 -17 143 -38
23 -23 57 -24 70 -4 3 5 12 9 20 9 8 0 12 -4 9 -10 -3 -5 -2 -10 4 -10 6 0 7
-7 4 -17 -4 -10 -2 -14 4 -10 20 13 -12 -166 -45 -245 -17 -42 -19 -42 -107
-28 -33 5 -98 11 -145 15 -125 8 -135 11 -148 49 -33 90 4 248 72 307 34 30
42 31 74 4z"/>
<path d="M840 1081 c0 -17 -4 -31 -10 -31 -5 0 -10 9 -10 19 0 11 -4 23 -10
26 -12 7 -12 -31 -1 -60 7 -18 9 -18 34 7 31 31 33 41 12 58 -13 11 -15 8 -15
-19z"/>
</g>
</svg>
